<svg width="700" height="420" viewBox="0 0 700 420" xmlns="http://www.w3.org/2000/svg">
<rect width="100%" height="100%" fill="#0B132B" />
<text x="350" y="36" text-anchor="middle" fill="#E0E6ED" font-family="sans-serif" font-size="18" font-weight="bold">Sea Surface Temperature (OISST v2.0) by RI Outcome</text>
<text x="350" y="58" text-anchor="middle" fill="#9BA4B5" font-family="sans-serif" font-size="11">Contrasting Non-RI (mean=28.05°C) vs. RI+ (mean=28.56°C)</text>
<rect x="220" y="80" width="16" height="12" fill="#4895EF" opacity="0.7" rx="2" />
<text x="242" y="90" fill="#E0E6ED" font-family="sans-serif" font-size="12">Non-RI Fixes (N=260)</text>
<rect x="420" y="80" width="16" height="12" fill="#F72585" opacity="0.8" rx="2" />
<text x="442" y="90" fill="#E0E6ED" font-family="sans-serif" font-size="12">RI+ Fixes (N=39)</text>
<line x1="90" y1="350" x2="640" y2="350" stroke="#3A4765" stroke-width="1.5" />
<line x1="90" y1="120" x2="90" y2="350" stroke="#3A4765" stroke-width="1.5" />
<text x="365" y="390" text-anchor="middle" fill="#E0E6ED" font-family="sans-serif" font-size="12">SST Bins (°C)</text>
<text x="45" y="235" text-anchor="middle" fill="#E0E6ED" font-family="sans-serif" font-size="12" transform="rotate(-90 45 235)">Relative Frequency (%)</text>
<rect x="109.3" y="315.9" width="20" height="34.1" fill="#4895EF" opacity="0.7" rx="2" />
<text x="119.3" y="307.9" text-anchor="middle" fill="#A0C4FF" font-family="sans-serif" font-size="9">8%</text>
<rect x="137.3" y="350.0" width="20" height="0.0" fill="#F72585" opacity="0.8" rx="2" />
<text x="147.3" y="342.0" text-anchor="middle" fill="#FFC6FF" font-family="sans-serif" font-size="9">0%</text>
<text x="133.3" y="368" text-anchor="middle" fill="#E0E6ED" font-family="sans-serif" font-size="11"><26.5</text>
<rect x="196.0" y="283.4" width="20" height="66.6" fill="#4895EF" opacity="0.7" rx="2" />
<text x="206.0" y="275.4" text-anchor="middle" fill="#A0C4FF" font-family="sans-serif" font-size="9">16%</text>
<rect x="224.0" y="328.5" width="20" height="21.5" fill="#F72585" opacity="0.8" rx="2" />
<text x="234.0" y="320.5" text-anchor="middle" fill="#FFC6FF" font-family="sans-serif" font-size="9">5%</text>
<text x="220.0" y="368" text-anchor="middle" fill="#E0E6ED" font-family="sans-serif" font-size="11">26.5-27.5</text>
<rect x="282.7" y="293.7" width="20" height="56.3" fill="#4895EF" opacity="0.7" rx="2" />
<text x="292.7" y="285.7" text-anchor="middle" fill="#A0C4FF" font-family="sans-serif" font-size="9">13%</text>
<rect x="310.7" y="328.5" width="20" height="21.5" fill="#F72585" opacity="0.8" rx="2" />
<text x="320.7" y="320.5" text-anchor="middle" fill="#FFC6FF" font-family="sans-serif" font-size="9">5%</text>
<text x="306.7" y="368" text-anchor="middle" fill="#E0E6ED" font-family="sans-serif" font-size="11">27.5-28.0</text>
<rect x="369.3" y="247.6" width="20" height="102.4" fill="#4895EF" opacity="0.7" rx="2" />
<text x="379.3" y="239.6" text-anchor="middle" fill="#A0C4FF" font-family="sans-serif" font-size="9">24%</text>
<rect x="397.3" y="253.1" width="20" height="96.9" fill="#F72585" opacity="0.8" rx="2" />
<text x="407.3" y="245.1" text-anchor="middle" fill="#FFC6FF" font-family="sans-serif" font-size="9">23%</text>
<text x="393.3" y="368" text-anchor="middle" fill="#E0E6ED" font-family="sans-serif" font-size="11">28.0-28.5</text>
<rect x="456.0" y="233.9" width="20" height="116.1" fill="#4895EF" opacity="0.7" rx="2" />
<text x="466.0" y="225.9" text-anchor="middle" fill="#A0C4FF" font-family="sans-serif" font-size="9">28%</text>
<rect x="484.0" y="113.1" width="20" height="236.9" fill="#F72585" opacity="0.8" rx="2" />
<text x="494.0" y="105.1" text-anchor="middle" fill="#FFC6FF" font-family="sans-serif" font-size="9">56%</text>
<text x="480.0" y="368" text-anchor="middle" fill="#E0E6ED" font-family="sans-serif" font-size="11">28.5-29.0</text>
<rect x="542.7" y="305.6" width="20" height="44.4" fill="#4895EF" opacity="0.7" rx="2" />
<text x="552.7" y="297.6" text-anchor="middle" fill="#A0C4FF" font-family="sans-serif" font-size="9">11%</text>
<rect x="570.7" y="306.9" width="20" height="43.1" fill="#F72585" opacity="0.8" rx="2" />
<text x="580.7" y="298.9" text-anchor="middle" fill="#FFC6FF" font-family="sans-serif" font-size="9">10%</text>
<text x="566.7" y="368" text-anchor="middle" fill="#E0E6ED" font-family="sans-serif" font-size="11">>29.0</text>
<line x1="85" y1="350.0" x2="640" y2="350.0" stroke="#1F2A44" stroke-dasharray="2,2" />
<text x="80" y="354.0" text-anchor="end" fill="#9BA4B5" font-family="sans-serif" font-size="10">0%</text>
<line x1="85" y1="308.0" x2="640" y2="308.0" stroke="#1F2A44" stroke-dasharray="2,2" />
<text x="80" y="312.0" text-anchor="end" fill="#9BA4B5" font-family="sans-serif" font-size="10">10%</text>
<line x1="85" y1="266.0" x2="640" y2="266.0" stroke="#1F2A44" stroke-dasharray="2,2" />
<text x="80" y="270.0" text-anchor="end" fill="#9BA4B5" font-family="sans-serif" font-size="10">20%</text>
<line x1="85" y1="224.0" x2="640" y2="224.0" stroke="#1F2A44" stroke-dasharray="2,2" />
<text x="80" y="228.0" text-anchor="end" fill="#9BA4B5" font-family="sans-serif" font-size="10">30%</text>
<line x1="85" y1="182.0" x2="640" y2="182.0" stroke="#1F2A44" stroke-dasharray="2,2" />
<text x="80" y="186.0" text-anchor="end" fill="#9BA4B5" font-family="sans-serif" font-size="10">40%</text>
<line x1="85" y1="140.0" x2="640" y2="140.0" stroke="#1F2A44" stroke-dasharray="2,2" />
<text x="80" y="144.0" text-anchor="end" fill="#9BA4B5" font-family="sans-serif" font-size="10">50%</text>
</svg>