<svg xmlns="http://www.w3.org/2000/svg" viewBox="0 0 750 420" width="750" height="420" style="background-color: #ffffff; font-family: -apple-system, BlinkMacSystemFont, Segoe UI, Roboto, Helvetica, Arial, sans-serif;">
<rect width="750" height="420" fill="#ffffff"/>
<text x="60" y="32" font-size="16" font-weight="bold" fill="#182026">Performance Ablation Summary (Held-Out Test Storm Chapala)</text>
<text x="60" y="48" font-size="11" fill="#5f6b7c">Comparison of Temporal (Model T), Spatial (Model S), and Multimodal Fusion (Model ST)</text>
<rect x="60" y="60" width="650" height="290" fill="#fcfcfd" stroke="#d1d5db" stroke-width="1"/>
<line x1="60" y1="350.0" x2="710" y2="350.0" stroke="#e5e7eb" stroke-width="1"/>
<text x="52" y="354.0" font-size="10" font-family="monospace" fill="#5f6b7c" text-anchor="end">0.0</text>
<line x1="60" y1="292.0" x2="710" y2="292.0" stroke="#e5e7eb" stroke-width="1"/>
<text x="52" y="296.0" font-size="10" font-family="monospace" fill="#5f6b7c" text-anchor="end">0.2</text>
<line x1="60" y1="234.0" x2="710" y2="234.0" stroke="#e5e7eb" stroke-width="1"/>
<text x="52" y="238.0" font-size="10" font-family="monospace" fill="#5f6b7c" text-anchor="end">0.4</text>
<line x1="60" y1="176.0" x2="710" y2="176.0" stroke="#e5e7eb" stroke-width="1"/>
<text x="52" y="180.0" font-size="10" font-family="monospace" fill="#5f6b7c" text-anchor="end">0.6</text>
<line x1="60" y1="117.99999999999999" x2="710" y2="117.99999999999999" stroke="#e5e7eb" stroke-width="1"/>
<text x="52" y="121.99999999999999" font-size="10" font-family="monospace" fill="#5f6b7c" text-anchor="end">0.8</text>
<line x1="60" y1="60.0" x2="710" y2="60.0" stroke="#e5e7eb" stroke-width="1"/>
<text x="52" y="64.0" font-size="10" font-family="monospace" fill="#5f6b7c" text-anchor="end">1.0</text>
<text x="114.16666666666666" y="370" font-size="11" font-weight="600" fill="#374151" text-anchor="middle">ROC-AUC</text>
<rect x="73.5" y="114.6" width="25.1" height="235.4" fill="#2563eb" rx="1"/>
<text x="86.1" y="110.6" font-size="9" font-family="monospace" fill="#1f2937" text-anchor="middle">0.81</text>
<rect x="100.6" y="219.8" width="25.1" height="130.2" fill="#b45309" rx="1"/>
<text x="113.2" y="215.8" font-size="9" font-family="monospace" fill="#1f2937" text-anchor="middle">0.45</text>
<rect x="127.7" y="138.9" width="25.1" height="211.1" fill="#0f5b6c" rx="1"/>
<text x="140.2" y="134.9" font-size="9" font-family="monospace" fill="#1f2937" text-anchor="middle">0.73</text>
<text x="222.49999999999997" y="370" font-size="11" font-weight="600" fill="#374151" text-anchor="middle">PR-AUC</text>
<rect x="181.9" y="239.6" width="25.1" height="110.4" fill="#2563eb" rx="1"/>
<text x="194.4" y="235.6" font-size="9" font-family="monospace" fill="#1f2937" text-anchor="middle">0.38</text>
<rect x="209.0" y="298.5" width="25.1" height="51.5" fill="#b45309" rx="1"/>
<text x="221.5" y="294.5" font-size="9" font-family="monospace" fill="#1f2937" text-anchor="middle">0.18</text>
<rect x="236.0" y="231.5" width="25.1" height="118.5" fill="#0f5b6c" rx="1"/>
<text x="248.6" y="227.5" font-size="9" font-family="monospace" fill="#1f2937" text-anchor="middle">0.41</text>
<text x="330.8333333333333" y="370" font-size="11" font-weight="600" fill="#374151" text-anchor="middle">F1 Score</text>
<rect x="290.2" y="191.8" width="25.1" height="158.2" fill="#2563eb" rx="1"/>
<text x="302.8" y="187.8" font-size="9" font-family="monospace" fill="#1f2937" text-anchor="middle">0.55</text>
<rect x="317.3" y="253.3" width="25.1" height="96.7" fill="#b45309" rx="1"/>
<text x="329.8" y="249.3" font-size="9" font-family="monospace" fill="#1f2937" text-anchor="middle">0.33</text>
<rect x="344.4" y="213.5" width="25.1" height="136.5" fill="#0f5b6c" rx="1"/>
<text x="356.9" y="209.5" font-size="9" font-family="monospace" fill="#1f2937" text-anchor="middle">0.47</text>
<text x="439.1666666666667" y="370" font-size="11" font-weight="600" fill="#374151" text-anchor="middle">Precision</text>
<rect x="398.5" y="236.5" width="25.1" height="113.5" fill="#2563eb" rx="1"/>
<text x="411.1" y="232.5" font-size="9" font-family="monospace" fill="#1f2937" text-anchor="middle">0.39</text>
<rect x="425.6" y="283.1" width="25.1" height="66.9" fill="#b45309" rx="1"/>
<text x="438.2" y="279.1" font-size="9" font-family="monospace" fill="#1f2937" text-anchor="middle">0.23</text>
<rect x="452.7" y="184.3" width="25.1" height="165.7" fill="#0f5b6c" rx="1"/>
<text x="465.3" y="180.3" font-size="9" font-family="monospace" fill="#1f2937" text-anchor="middle">0.57</text>
<text x="547.5" y="370" font-size="11" font-weight="600" fill="#374151" text-anchor="middle">Recall</text>
<rect x="506.9" y="89.0" width="25.1" height="261.0" fill="#2563eb" rx="1"/>
<text x="519.4" y="85.0" font-size="9" font-family="monospace" fill="#1f2937" text-anchor="middle">0.90</text>
<rect x="534.0" y="176.0" width="25.1" height="174.0" fill="#b45309" rx="1"/>
<text x="546.5" y="172.0" font-size="9" font-family="monospace" fill="#1f2937" text-anchor="middle">0.60</text>
<rect x="561.0" y="234.0" width="25.1" height="116.0" fill="#0f5b6c" rx="1"/>
<text x="573.6" y="230.0" font-size="9" font-family="monospace" fill="#1f2937" text-anchor="middle">0.40</text>
<text x="655.8333333333333" y="370" font-size="11" font-weight="600" fill="#374151" text-anchor="middle">Accuracy</text>
<rect x="615.2" y="142.1" width="25.1" height="207.9" fill="#2563eb" rx="1"/>
<text x="627.7" y="138.1" font-size="9" font-family="monospace" fill="#1f2937" text-anchor="middle">0.72</text>
<rect x="642.3" y="191.3" width="25.1" height="158.7" fill="#b45309" rx="1"/>
<text x="654.8" y="187.3" font-size="9" font-family="monospace" fill="#1f2937" text-anchor="middle">0.55</text>
<rect x="669.4" y="109.2" width="25.1" height="240.8" fill="#0f5b6c" rx="1"/>
<text x="681.9" y="105.2" font-size="9" font-family="monospace" fill="#1f2937" text-anchor="middle">0.83</text>
<rect x="80" y="390" width="12" height="12" fill="#2563eb" rx="2"/>
<text x="98" y="400" font-size="11" fill="#374151">Model T (Temporal)</text>
<rect x="260" y="390" width="12" height="12" fill="#b45309" rx="2"/>
<text x="278" y="400" font-size="11" fill="#374151">Model S (Spatial)</text>
<rect x="440" y="390" width="12" height="12" fill="#0f5b6c" rx="2"/>
<text x="458" y="400" font-size="11" fill="#374151">Model ST (Combined)</text>
</svg>